<svg xmlns="http://www.w3.org/2000/svg" viewBox="0 0 1455 369"><path d="M63.5 0H1455v304.79L1390.61 369H0V63.39Z" fill="#41cd52"/><path d="M191.324 259.608c-3.7 1.137-11.1 1.707-17.356 1.707-61.177 0-79.387-33.576-79.387-99.588 0-65.16 18.495-101.581 79.387-101.581s79.1 36.136 79.1 101.581c0 44.1-8.25 72.272-31.014 87.353l23.9 38.413-29.308 13.658Zm29.023-97.881c0-48.373-8.82-73.982-46.379-73.982S127.3 113.354 127.3 161.727c0 48.94 8.821 71.987 46.666 71.987s46.381-22.193 46.381-71.987ZM323.336 142.377v62.6c0 21.341.853 28.738 15.65 28.738 7.968 0 23.332-.853 23.332-.853l1.422 24.754s-19.063 3.7-29.021 3.7c-32.154 0-42.113-11.95-42.113-52.924v-66.015H274.4v-26.461h18.211V74.657h30.73v41.259H362.6v26.461Z" fill="#b3ff97"/><path d="M461.429 234.151c26.182 0 40.129-11.668 40.129-37.852V63.675h31.875V195.73c0 46.959-25.33 66.028-72 66.028-46.39 0-71.435-19.069-71.435-66.028V63.675h31.875V196.3c-.004 26.467 13.658 37.851 39.556 37.851ZM571.856 116.326h30.737v8.823S622.23 113.2 639.3 113.2c37 0 54.36 21.061 54.36 72.858 0 58.627-19.923 75.7-63.751 75.7-11.669 0-25.33-2.277-27.038-2.562v60.62h-31.02Zm31.02 32.445v83.957a186.963 186.963 0 0 0 25.046 2.277c26.468 0 34.151-13.945 34.151-48.951 0-33.3-10.529-45.252-28.175-45.252-15.084-.002-31.022 7.969-31.022 7.969ZM840.8 258.627h-30.735v-7.4s-20.777 10.531-38.137 10.531c-36.429 0-53.79-19.069-53.79-74 0-51.512 18.5-74.565 59.2-74.565 11.385 0 30.737 3.415 32.445 3.7V57.13H840.8Zm-31.02-31.591v-84.242c-1.708-.284-18.214-2.846-30.168-2.846-21.061 0-30.167 15.368-30.167 47.813 0 36.429 9.961 46.39 27.321 46.39 16.223 0 33.014-7.115 33.014-7.115ZM983.671 225.044c.57 8.538 4.269 11.953 12.524 13.091l-.855 23.623c-17.361 0-27.321-2.277-37.852-10.531 0 0-22.768 10.531-45.82 10.531-28.176 0-42.406-15.654-42.406-45.252 0-30.168 16.507-40.413 46.96-42.975l36.712-3.13v-10.246c0-15.653-6.83-20.491-20.775-20.491-19.068 0-53.5 2.846-53.5 2.846l-1.144-21.91s31.022-7.4 57.205-7.4c34.722 0 48.951 14.515 48.951 46.959Zm-63.75-29.6c-13.092 1.139-19.637 7.4-19.637 20.207s5.407 20.776 17.361 20.776c16.222 0 35.289-6.261 35.289-6.261v-37.851ZM1059.943 142.794v62.612c0 21.345.853 28.745 15.653 28.745 7.969 0 23.337-.854 23.337-.854l1.423 24.761s-19.068 3.7-29.029 3.7c-32.16 0-42.121-11.954-42.121-52.936v-66.028h-18.214v-26.468h18.214V75.06h30.737v41.266h39.275v26.468ZM1233.832 232.159l.569 23.053s-32.445 6.546-57.489 6.546c-42.69 0-59.2-22.769-59.2-72.858 0-52.082 22.484-75.7 61.759-75.7 39.844 0 59.767 20.776 59.767 65.174l-1.993 22.2h-88.226c.285 22.768 8.823 34.152 32.444 34.152 22.486-.006 52.369-2.567 52.369-2.567Zm-25.046-55.5c0-28.46-8.536-37.852-29.313-37.852-21.061 0-30.452 10.53-30.737 37.852ZM1269.123 116.326h30.737V133.4s24.19-15.654 48.381-20.207v31.021a251.594 251.594 0 0 0-48.1 15.084v99.326h-31.02Z" fill="#fff"/></svg>